<svg width="400" height="300" xmlns="http://www.w3.org/2000/svg">
  <defs>
    <linearGradient id="skyGradient2" x1="0%" y1="0%" x2="0%" y2="100%">
      <stop offset="0%" style="stop-color:#FFE4B5;stop-opacity:1" />
      <stop offset="100%" style="stop-color:#FFF8DC;stop-opacity:1" />
    </linearGradient>
    <linearGradient id="buildingGradient2" x1="0%" y1="0%" x2="0%" y2="100%">
      <stop offset="0%" style="stop-color:#F0E68C;stop-opacity:1" />
      <stop offset="100%" style="stop-color:#DAA520;stop-opacity:1" />
    </linearGradient>
  </defs>
  
  <!-- Sky background -->
  <rect width="100%" height="100%" fill="url(#skyGradient2)"/>
  
  <!-- Ground -->
  <rect x="0" y="240" width="400" height="60" fill="#9ACD32"/>
  
  <!-- Main complex -->
  <rect x="80" y="140" width="240" height="100" fill="url(#buildingGradient2)" stroke="#B8860B" stroke-width="2"/>
  
  <!-- Central dome -->
  <ellipse cx="200" cy="140" rx="40" ry="25" fill="#DC143C" stroke="#8B0000" stroke-width="2"/>
  <path d="M 195 120 Q 200 110 205 120 Q 200 115 195 120" fill="#FFD700"/>
  
  <!-- Side buildings -->
  <rect x="60" y="160" width="60" height="80" fill="url(#buildingGradient2)" stroke="#B8860B" stroke-width="1"/>
  <rect x="280" y="160" width="60" height="80" fill="url(#buildingGradient2)" stroke="#B8860B" stroke-width="1"/>
  
  <!-- Small domes on side buildings -->
  <ellipse cx="90" cy="160" rx="20" ry="12" fill="#DC143C" stroke="#8B0000" stroke-width="1"/>
  <ellipse cx="310" cy="160" rx="20" ry="12" fill="#DC143C" stroke="#8B0000" stroke-width="1"/>
  
  <!-- Arched windows -->
  <rect x="110" y="180" width="20" height="30" rx="10" fill="#4169E1" stroke="#000080" stroke-width="1"/>
  <rect x="140" y="180" width="20" height="30" rx="10" fill="#4169E1" stroke="#000080" stroke-width="1"/>
  <rect x="240" y="180" width="20" height="30" rx="10" fill="#4169E1" stroke="#000080" stroke-width="1"/>
  <rect x="270" y="180" width="20" height="30" rx="10" fill="#4169E1" stroke="#000080" stroke-width="1"/>
  
  <!-- Central entrance -->
  <rect x="180" y="200" width="40" height="40" rx="20" fill="#654321" stroke="#8B4513" stroke-width="2"/>
  
  <!-- Decorative patterns -->
  <rect x="90" y="150" width="220" height="3" fill="#8B0000"/>
  <rect x="90" y="220" width="220" height="3" fill="#8B0000"/>
  
  <!-- Palm trees -->
  <g transform="translate(30,200)">
    <rect x="-2" y="0" width="4" height="40" fill="#8B4513"/>
    <ellipse cx="0" cy="-5" rx="15" ry="8" fill="#228B22" transform="rotate(-20)"/>
    <ellipse cx="0" cy="-5" rx="15" ry="8" fill="#228B22" transform="rotate(20)"/>
    <ellipse cx="0" cy="-5" rx="15" ry="8" fill="#228B22" transform="rotate(60)"/>
    <ellipse cx="0" cy="-5" rx="15" ry="8" fill="#228B22" transform="rotate(-60)"/>
  </g>
  
  <g transform="translate(370,210)">
    <rect x="-2" y="0" width="4" height="30" fill="#8B4513"/>
    <ellipse cx="0" cy="-5" rx="12" ry="6" fill="#228B22" transform="rotate(-20)"/>
    <ellipse cx="0" cy="-5" rx="12" ry="6" fill="#228B22" transform="rotate(20)"/>
    <ellipse cx="0" cy="-5" rx="12" ry="6" fill="#228B22" transform="rotate(60)"/>
    <ellipse cx="0" cy="-5" rx="12" ry="6" fill="#228B22" transform="rotate(-60)"/>
  </g>
</svg>