<svg width="400" height="300" xmlns="http://www.w3.org/2000/svg">
  <defs>
    <linearGradient id="skyGradient" x1="0%" y1="0%" x2="0%" y2="100%">
      <stop offset="0%" style="stop-color:#87CEEB;stop-opacity:1" />
      <stop offset="100%" style="stop-color:#E0F6FF;stop-opacity:1" />
    </linearGradient>
    <linearGradient id="buildingGradient" x1="0%" y1="0%" x2="0%" y2="100%">
      <stop offset="0%" style="stop-color:#F5F5DC;stop-opacity:1" />
      <stop offset="100%" style="stop-color:#DDD;stop-opacity:1" />
    </linearGradient>
  </defs>
  
  <!-- Sky background -->
  <rect width="100%" height="100%" fill="url(#skyGradient)"/>
  
  <!-- Ground -->
  <rect x="0" y="250" width="400" height="50" fill="#90EE90"/>
  
  <!-- Main building -->
  <rect x="100" y="120" width="200" height="130" fill="url(#buildingGradient)" stroke="#CCC" stroke-width="2"/>
  
  <!-- Dome -->
  <ellipse cx="200" cy="120" rx="50" ry="30" fill="#4682B4" stroke="#2F4F4F" stroke-width="2"/>
  
  <!-- Crescent moon on dome -->
  <path d="M 195 105 Q 200 95 205 105 Q 200 100 195 105" fill="#FFD700"/>
  
  <!-- Minaret left -->
  <rect x="80" y="80" width="20" height="170" fill="url(#buildingGradient)" stroke="#CCC" stroke-width="1"/>
  <ellipse cx="90" cy="80" rx="12" ry="8" fill="#4682B4" stroke="#2F4F4F" stroke-width="1"/>
  <path d="M 87 75 Q 90 70 93 75 Q 90 72 87 75" fill="#FFD700"/>
  
  <!-- Minaret right -->
  <rect x="300" y="80" width="20" height="170" fill="url(#buildingGradient)" stroke="#CCC" stroke-width="1"/>
  <ellipse cx="310" cy="80" rx="12" ry="8" fill="#4682B4" stroke="#2F4F4F" stroke-width="1"/>
  <path d="M 307 75 Q 310 70 313 75 Q 310 72 307 75" fill="#FFD700"/>
  
  <!-- Windows -->
  <rect x="130" y="150" width="25" height="40" rx="12" fill="#4169E1" stroke="#000080" stroke-width="1"/>
  <rect x="170" y="150" width="25" height="40" rx="12" fill="#4169E1" stroke="#000080" stroke-width="1"/>
  <rect x="210" y="150" width="25" height="40" rx="12" fill="#4169E1" stroke="#000080" stroke-width="1"/>
  <rect x="250" y="150" width="25" height="40" rx="12" fill="#4169E1" stroke="#000080" stroke-width="1"/>
  
  <!-- Main door -->
  <rect x="180" y="200" width="40" height="50" rx="20" fill="#8B4513" stroke="#654321" stroke-width="2"/>
  <circle cx="210" cy="225" r="2" fill="#FFD700"/>
  
  <!-- Trees -->
  <ellipse cx="50" cy="220" rx="25" ry="30" fill="#228B22"/>
  <rect x="47" y="220" width="6" height="30" fill="#8B4513"/>
  
  <ellipse cx="350" cy="210" rx="20" ry="25" fill="#228B22"/>
  <rect x="348" y="210" width="4" height="40" fill="#8B4513"/>
  
  <!-- Clouds -->
  <ellipse cx="80" cy="50" rx="15" ry="8" fill="white" opacity="0.8"/>
  <ellipse cx="320" cy="40" rx="20" ry="10" fill="white" opacity="0.8"/>
</svg>