<svg width="400" height="300" xmlns="http://www.w3.org/2000/svg">
  <defs>
    <linearGradient id="skyGradient3" x1="0%" y1="0%" x2="0%" y2="100%">
      <stop offset="0%" style="stop-color:#E6E6FA;stop-opacity:1" />
      <stop offset="100%" style="stop-color:#F0F8FF;stop-opacity:1" />
    </linearGradient>
    <linearGradient id="buildingGradient3" x1="0%" y1="0%" x2="0%" y2="100%">
      <stop offset="0%" style="stop-color:#FFFAF0;stop-opacity:1" />
      <stop offset="100%" style="stop-color:#F5F5DC;stop-opacity:1" />
    </linearGradient>
  </defs>
  
  <!-- Sky background -->
  <rect width="100%" height="100%" fill="url(#skyGradient3)"/>
  
  <!-- Mountains in background -->
  <polygon points="0,200 100,150 200,180 300,140 400,160 400,300 0,300" fill="#708090" opacity="0.3"/>
  
  <!-- Ground -->
  <rect x="0" y="250" width="400" height="50" fill="#98FB98"/>
  
  <!-- Main building complex -->
  <rect x="120" y="130" width="160" height="120" fill="url(#buildingGradient3)" stroke="#D3D3D3" stroke-width="2"/>
  
  <!-- Central tower -->
  <rect x="180" y="100" width="40" height="150" fill="url(#buildingGradient3)" stroke="#D3D3D3" stroke-width="2"/>
  
  <!-- Tower dome -->
  <ellipse cx="200" cy="100" rx="25" ry="15" fill="#2E8B57" stroke="#006400" stroke-width="2"/>
  <path d="M 197 88 Q 200 82 203 88 Q 200 85 197 88" fill="#FFD700"/>
  
  <!-- Side wings -->
  <rect x="80" y="170" width="40" height="80" fill="url(#buildingGradient3)" stroke="#D3D3D3" stroke-width="1"/>
  <rect x="280" y="170" width="40" height="80" fill="url(#buildingGradient3)" stroke="#D3D3D3" stroke-width="1"/>
  
  <!-- Small towers on wings -->
  <rect x="90" y="150" width="20" height="100" fill="url(#buildingGradient3)" stroke="#D3D3D3" stroke-width="1"/>
  <rect x="290" y="150" width="20" height="100" fill="url(#buildingGradient3)" stroke="#D3D3D3" stroke-width="1"/>
  
  <!-- Small domes -->
  <ellipse cx="100" cy="150" rx="12" ry="8" fill="#2E8B57" stroke="#006400" stroke-width="1"/>
  <ellipse cx="300" cy="150" rx="12" ry="8" fill="#2E8B57" stroke="#006400" stroke-width="1"/>
  
  <!-- Windows on main building -->
  <rect x="140" y="160" width="15" height="25" rx="7" fill="#4682B4" stroke="#191970" stroke-width="1"/>
  <rect x="165" y="160" width="15" height="25" rx="7" fill="#4682B4" stroke="#191970" stroke-width="1"/>
  <rect x="220" y="160" width="15" height="25" rx="7" fill="#4682B4" stroke="#191970" stroke-width="1"/>
  <rect x="245" y="160" width="15" height="25" rx="7" fill="#4682B4" stroke="#191970" stroke-width="1"/>
  
  <!-- Tower windows -->
  <rect x="190" y="130" width="10" height="15" rx="5" fill="#4682B4" stroke="#191970" stroke-width="1"/>
  <rect x="210" y="130" width="10" height="15" rx="5" fill="#4682B4" stroke="#191970" stroke-width="1"/>
  
  <!-- Main entrance -->
  <rect x="185" y="210" width="30" height="40" rx="15" fill="#8B4513" stroke="#654321" stroke-width="2"/>
  <circle cx="205" cy="230" r="2" fill="#FFD700"/>
  
  <!-- Decorative arches -->
  <path d="M 130 200 Q 150 190 170 200" stroke="#B8860B" stroke-width="2" fill="none"/>
  <path d="M 230 200 Q 250 190 270 200" stroke="#B8860B" stroke-width="2" fill="none"/>
  
  <!-- Garden elements -->
  <ellipse cx="60" cy="230" rx="20" ry="15" fill="#32CD32"/>
  <ellipse cx="340" cy="225" rx="25" ry="18" fill="#32CD32"/>
  
  <!-- Flowers -->
  <circle cx="55" cy="225" r="3" fill="#FF69B4"/>
  <circle cx="65" cy="235" r="3" fill="#FF1493"/>
  <circle cx="335" cy="220" r="3" fill="#FF69B4"/>
  <circle cx="345" cy="230" r="3" fill="#FF1493"/>
</svg>